<svg width="67" height="47" viewBox="0 0 67 47" fill="none" xmlns="http://www.w3.org/2000/svg">
<path d="M12.3125 0.5L24 33.5L35.625 0.5H47.9375V46H38.5312V33.5625L39.4688 12.0938L27.1875 46H20.75L8.5 12.125L9.4375 33.5625V46H0.0625V0.5H12.3125ZM56 41.5625C56 40.125 56.4792 38.9583 57.4375 38.0625C58.4167 37.1667 59.6354 36.7188 61.0938 36.7188C62.5729 36.7188 63.7917 37.1667 64.75 38.0625C65.7292 38.9583 66.2188 40.125 66.2188 41.5625C66.2188 42.9792 65.7396 44.1354 64.7812 45.0312C63.8229 45.9062 62.5938 46.3438 61.0938 46.3438C59.6146 46.3438 58.3958 45.9062 57.4375 45.0312C56.4792 44.1354 56 42.9792 56 41.5625Z" fill="white"/>
</svg>
